<svg width="50" height="50" viewBox="0 0 50 50" fill="none" xmlns="http://www.w3.org/2000/svg">
<path fill-rule="evenodd" clip-rule="evenodd" d="M20.8333 45.8333C20.8333 48.1346 22.6987 50 25 50C27.3012 50 29.1667 48.1346 29.1667 45.8333V29.1667H45.8333C48.1346 29.1667 50 27.3012 50 25C50 22.6987 48.1346 20.8333 45.8333 20.8333H29.1667V4.16667C29.1667 1.86546 27.3012 0 25 0C22.6987 0 20.8333 1.86546 20.8333 4.16667V20.8333H4.16667C1.8655 20.8333 0 22.6987 0 25C0 27.3012 1.8655 29.1667 4.16667 29.1667H20.8333V45.8333Z" fill="black"/>
</svg>
